# xmcd
#
# Track frame offsets: 
#        150
#        12933
#        29256
#        48687
#        67156
#        81369
#        100810
#        119577
#        144363
#        162927
#
# Disc length: 2406 seconds
#
# Revision: 2
# Processed by: cddbd v1.5.2PL0 Copyright (c) Steve Scherf et al.
# Submitted via: ExactAudioCopy v1.3
#
DISCID=8909640a
DTITLE=Mario Biondi and The Unexpected Glimpses - Due CD 1
DYEAR=2011
DGENRE=Blues
TTITLE0=Blue Skies
TTITLE1=Won't You Come Back
TTITLE2=Life Is Everything
TTITLE3=In The Sun
TTITLE4=My Girl
TTITLE5=The Door Is Still Open To My Heart
TTITLE6=What's Happening Brother
TTITLE7=Free
TTITLE8=Dreaming
TTITLE9=Funny How Time Slips Away
EXTD=
EXTT0=
EXTT1=
EXTT2=
EXTT3=
EXTT4=
EXTT5=
EXTT6=
EXTT7=
EXTT8=
EXTT9=
PLAYORDER=
